<svg xmlns="http://www.w3.org/2000/svg" xmlns:xlink="http://www.w3.org/1999/xlink"><defs><symbol fill="none" viewBox="0 0 40 40" id="alert-circle"><path d="M20 36.668c9.204 0 16.666-7.462 16.666-16.666 0-9.205-7.462-16.667-16.667-16.667-9.205 0-16.666 7.462-16.666 16.667 0 9.204 7.461 16.666 16.666 16.666ZM19.998 20.002v6.666M19.981 13.338H20" stroke="#3EC5FC" stroke-width="4" stroke-linecap="round" stroke-linejoin="round" /></symbol><symbol fill="none" viewBox="0 0 18 10" id="arrow-down"><path d="m1 1 8 8 8-8" stroke="#fff" stroke-width="2" stroke-linecap="round" stroke-linejoin="round" /></symbol><symbol fill="none" viewBox="0 0 60 60" id="arrow-left"><rect x="21.667" y="29.976" width="20" height="3.333" rx="1.667" transform="rotate(-45 21.667 29.976)" fill="#fff" /><rect x="21.667" y="29.976" width="3.333" height="20" rx="1.667" transform="rotate(-45 21.667 29.976)" fill="#fff" /></symbol><symbol fill="none" viewBox="0 0 60 60" id="arrow-right"><rect x="38.333" y="30.024" width="20" height="3.333" rx="1.667" transform="rotate(135 38.333 30.024)" fill="#fff" /><rect x="38.333" y="30.024" width="3.333" height="20" rx="1.667" transform="rotate(135 38.333 30.024)" fill="#fff" /></symbol><symbol fill="none" viewBox="0 0 18 10" id="arrow-up"><path d="M17 9 9 1 1 9" stroke="#fff" stroke-width="2" stroke-linecap="round" stroke-linejoin="round" /></symbol><symbol fill="none" viewBox="0 0 32 32" id="check_mark"><circle cx="16" cy="16" r="16" fill="#3EC5FC" /><path fill="#fff" d="M12.04 20.954 23.354 9.64l1.131 1.132-11.314 11.314z" /><path fill="#fff" d="m7.515 16.428 1.131-1.132 5.657 5.657-1.131 1.132z" /></symbol><symbol fill="none" viewBox="0 0 32 32" id="checkbox"><path d="m12 14.667 4 4L29.333 5.333" stroke="#3EC5FC" stroke-width="4" stroke-linecap="round" stroke-linejoin="round" /><path d="M28 16v9.333A2.667 2.667 0 0 1 25.333 28H6.667A2.667 2.667 0 0 1 4 25.333V6.667A2.667 2.667 0 0 1 6.667 4h14.666" stroke="#000" stroke-width="2" stroke-linecap="round" stroke-linejoin="round" /></symbol><symbol fill="none" viewBox="0 0 32 32" id="checkbox-empty"><path d="M28 16v9.333A2.667 2.667 0 0 1 25.333 28H6.667m0 0A2.667 2.667 0 0 1 4 25.333V6.667A2.667 2.667 0 0 1 6.667 4m0 24H16M6.667 4h14.666M6.667 4h18.666A2.667 2.667 0 0 1 28 6.667v14.666" stroke="#000" stroke-width="2" stroke-linecap="round" stroke-linejoin="round" /></symbol><symbol fill="none" viewBox="0 0 60 60" id="menu-btn"><path fill="#3EC5FC" d="M0 0h60v60H0z" /><rect x="15" y="22" width="30" height="4" rx="2" fill="#fff" /><rect x="15" y="34" width="30" height="4" rx="2" fill="#fff" /></symbol><symbol fill="none" viewBox="0 0 60 60" id="nav-cross"><path fill="#3EC5FC" d="M0 0h60v60H0z" /><path d="M39 21 21 39M21 21l18 18" stroke="#fff" stroke-width="4" stroke-linecap="round" stroke-linejoin="round" /></symbol><symbol fill="none" viewBox="0 0 26 18" id="slider-arrows-white"><rect x="17" y=".515" width="12" height="2" rx="1" transform="rotate(45 17 .515)" fill="#fff" /><rect x="24.071" y="7.586" width="2" height="12" rx="1" transform="rotate(45 24.071 7.586)" fill="#fff" /><rect x="9" y="17.485" width="12" height="2" rx="1" transform="rotate(-135 9 17.485)" fill="#fff" /><rect x="1.929" y="10.414" width="2" height="12" rx="1" transform="rotate(-135 1.929 10.414)" fill="#fff" /></symbol><symbol fill="none" viewBox="0 0 112 16" id="taycan-4s-text"><path fill-rule="evenodd" clip-rule="evenodd" d="M111.452 2.783c-.152-.016-.294-.023-.447-.038a39.634 39.634 0 0 0-1.993-.08 35.182 35.182 0 0 0-4.612.215c-1.402.16-2.639.401-3.676.678-2.118.566-3.36 1.396-3.37 1.966-.01.6.589 1.086 2.764 1.556.766.166 1.805.331 2.274.408 3.355.547 5.183.926 4.268 1.385-.461.231-1.697.473-3.989.641a61.498 61.498 0 0 1-4.307.162c-1.744.014-3.821-.002-6.215-.108-.636.713-.863.98-1.322 1.456 1.082.029 2.142.067 3.226.098 3.364.095 6.761.07 10.119-.114a35.073 35.073 0 0 0 4.143-.46c1.995-.345 2.656-.828 2.816-1.399.161-.575-.531-1.18-1.978-1.746-.723-.282-1.641-.555-2.737-.809-1.095-.253-2.375-.454-3.822-.682-1.669-.262-1.536-.583-.286-.995.619-.203 1.505-.395 2.571-.543a32.83 32.83 0 0 1 3.643-.289c.506-.016 1.564-.033 2.505-.052.037 0 .067-.002.099-.004.18-.008.273-.12.39-.237.613-.679.699-.931-.064-1.01ZM89.803 7.92l.878-1.083c-.964.089-1.46.114-2.355.16l-.98 1.118a90.955 90.955 0 0 1-6.336.114c-.155-.002-.359.02-.383-.077-.03-.12.533-.443.705-.548 2.164-1.314 6.816-2.544 10.256-3.192l1.335-1.479C87.9 3.635 81.696 5.1 78.194 7.28c-1.226.763-2.171 2.108-.073 2.351 2.35.272 5.574.11 7.926.013L84.67 11.21c1.781-.026 2.113.086 3.15-1.022l.143-.145.563-.59 2.154-.157 1.288-1.54-2.164.164ZM46.237 10.664c.38.408 1.397.577 2.544.484 1.189-.068 2.791-.407 4.776-1.13a25.85 25.85 0 0 0 1.634-.665c.082.186.161.363.245.536.394.835.923 1.263 2.075.914.627-.19 1.456-.393 2.577-.787l-.969 1.097 1.217.006c.592-.028 1.094-.24 1.478-.62l1.784-1.765c2.864-.916 4.872-1.26 5.78-1.382.075-.008.1.035.022.109-.818.841-1.832 2.088-2.381 2.982-.34.553.066.661 1.088.702.919.038 1.716-.04 2.625-.14a21.63 21.63 0 0 0 3.424-.647l-.145-.514c-.063-.26-.33-.372-.634-.306-.69.141-1.054.216-1.384.262-.385.055-.751.09-.903.097-.706.034-.76-.201-.441-.617.65-.847 1.594-1.834 2.312-2.677a.488.488 0 0 0 .086-.507c-.05-.137-.109-.27-.182-.415-.321-.629-2.991.029-5.212.693-1.164.343-2.188.689-2.635.836l1.603-1.766-2.65.14-2.45 2.818c-.66.253-1.284.451-1.907.678-.913.333-1.447.198-1.703-.211-.2-.32-.244-.632.008-.941l2.24-2.485c-1.919-.06-5.343.167-8.324.978-1.577.429-3.213 1.11-3.767 1.408-.918.49-1.8 1.069-2.034 1.601-3.906.753-5.784.614-7.029.474-2.85-.32-.447-1.583.294-1.894 1.147-.482 2.782-.88 4.852-1.336a47.636 47.636 0 0 1 2.22-.4l.081-.015c.151-.028.224-.134.318-.246.392-.474.446-.697-.095-.705-.123 0-.245.001-.377.009-1.557.09-4.052.386-6.31 1.026-3.69 1.064-5.657 2.365-5.547 3.471-2.17.694-5.257 1.89-6.818 2.686 1.27-1.258 4.777-4.534 7.83-7.158l-3.098.279-2.143 2.065c-1.063.553-3.313 1.394-4.63 1.6-.445.07-.135-.322.069-.581.718-.917 2.06-2.307 2.838-3.082-1.369.14-2.075.147-3.066.312-.226.158-1.711 1.648-2.388 2.414-.807.353-1.975.741-2.708.98-.702.26-.863.177-1.087-.221-.175-.312-.337-.795-.144-1.021l2.216-2.594c-5.67-.053-8.998.79-11.699 2.43l-5.19 1.271.283-.295c.791-.823 1.585-1.644 2.368-2.474.588-.622 1.17-1.251 1.744-1.886a83.693 83.693 0 0 0 1.794-2.048c1.115-.03 2.226-.075 3.34-.124 1.48-.064 2.964-.132 4.446-.144.517-.004.95-.101 1.32-.26.37-.16.677-.38.938-.63.114-.11.238-.224.366-.344.34-.316.71-.662 1.005-.989a420.403 420.403 0 0 0-11.024.574C9.357.681 7.712.801 6.07.931c-1.351.108-2.702.223-4.051.356-.564.55-1.141 1.111-1.698 1.68a466.64 466.64 0 0 0 3.284-.157c.97-.05 1.964-.105 3.05-.164l.582-.032c-.64.75-1.278 1.5-1.918 2.248L3.483 7.015 1.698 9.107C1.131 9.773.567 10.442 0 11.109h1.483c.483.001 1.015-.239 1.1-.282.137-.073.27-.156.398-.247l4.913-1.195c-.843 1.267.16 2.33 3.985 1.592 1.553-.3 3.154-.908 4.556-1.524.09.21.174.394.27.584.407.813.865 1.36 1.894 1.003.86-.262 2.339-.782 3.419-1.286-.154.194-.314.456-.327.474-.648.96-.383 1.341 1.382 1.055 1.635-.265 3.893-.868 5.145-1.447A221.292 221.292 0 0 0 22.255 16l1.618-.352c.768-.422 1.329-.848 2.247-1.351 1.586-.87 6.573-2.86 8.953-3.624.795.515 2.264.777 4.698.693 1.63-.057 3.756-.18 6.466-.702ZM57.135 6.58c-1.133 1.014-2.488 1.63-4.334 2.2a26.82 26.82 0 0 1-1.637.44c-2.939.632-2.528-.292.38-1.345 1.829-.63 3.663-1.096 5.591-1.295Zm-38.742.015c-1.118 1.031-2.43 1.686-4.232 2.244a24.63 24.63 0 0 1-1.596.427c-2.984.656-2.353-.428.488-1.468 1.787-.62 3.466-1.031 5.34-1.203Z" fill="#fff" /></symbol><symbol fill="none" viewBox="0 0 94 20" id="taycan-text"><path clip-rule="evenodd" d="M58.486 13.33c.477.51 1.752.721 3.19.604 1.491-.084 3.501-.508 5.99-1.41a32.573 32.573 0 0 0 2.049-.833c.104.232.203.454.307.67.495 1.044 1.157 1.579 2.602 1.143.787-.238 1.826-.491 3.233-.984l-1.215 1.371 1.525.008c.743-.036 1.373-.301 1.854-.776l2.238-2.206c3.591-1.144 6.109-1.576 7.249-1.727.093-.01.125.044.027.136-1.026 1.051-2.297 2.61-2.986 3.728-.427.692.083.826 1.365.878 1.152.046 2.151-.051 3.291-.177 1.2-.136 2.437-.313 4.295-.807l-.182-.642c-.08-.325-.414-.466-.796-.384-.865.177-1.322.27-1.735.327-.483.07-.942.113-1.132.122-.887.043-.954-.251-.554-.771.815-1.06 2-2.292 2.9-3.347a.608.608 0 0 0 .108-.633 4.51 4.51 0 0 0-.23-.518c-.402-.787-3.75.035-6.535.865-1.46.429-2.744.861-3.304 1.045l2.01-2.206-3.323.175-3.074 3.522c-.827.315-1.61.564-2.39.847-1.145.416-1.815.247-2.136-.264-.25-.399-.306-.79.01-1.177l2.81-3.106c-2.408-.073-6.702.21-10.44 1.223-1.978.536-4.03 1.388-4.725 1.76-1.15.613-2.256 1.336-2.55 2.002-4.9.94-7.254.767-8.815.592-3.574-.4-.562-1.979.368-2.368 1.438-.602 3.49-1.1 6.085-1.67.787-.169 1.799-.34 2.783-.5l.103-.018c.19-.035.281-.168.399-.307.492-.593.558-.871-.12-.882-.154 0-.306.002-.472.01-1.953.113-5.082.484-7.913 1.283-4.628 1.33-7.096 2.957-6.957 4.34-2.723.867-6.593 2.36-8.551 3.356 1.594-1.571 5.991-5.666 9.82-8.946l-3.886.348-2.687 2.581c-1.333.692-4.155 1.743-5.806 2-.558.087-.17-.402.085-.726.902-1.146 2.586-2.884 3.56-3.852-1.716.175-2.602.183-3.845.39-.283.197-2.146 2.06-2.995 3.018-1.012.441-2.477.926-3.396 1.223-.88.326-1.081.223-1.362-.275-.22-.39-.424-.994-.182-1.277l2.78-3.242c-7.112-.066-11.285.987-14.672 3.038l-6.509 1.589.355-.369c.992-1.029 1.987-2.056 2.97-3.093.737-.778 1.466-1.563 2.187-2.357.765-.841 1.513-1.694 2.25-2.56 1.397-.037 2.791-.095 4.188-.155 1.857-.08 3.717-.165 5.576-.18a4.224 4.224 0 0 0 1.656-.326 3.94 3.94 0 0 0 1.176-.786c.143-.137.298-.281.459-.43.426-.396.89-.828 1.26-1.237a528.933 528.933 0 0 0-13.826.717c-2.063.135-4.124.284-6.185.447-1.694.134-3.388.279-5.08.444-.707.688-1.431 1.39-2.13 2.102 1.373-.06 2.746-.128 4.119-.198 1.218-.063 2.463-.13 3.825-.205l.73-.04c-.802.937-1.602 1.875-2.405 2.81L4.868 8.77c-.746.87-1.493 1.742-2.238 2.614-.712.833-1.42 1.67-2.13 2.504h1.86c.605 0 1.273-.299 1.378-.354.173-.09.34-.194.5-.308l6.161-1.493c-1.056 1.583.202 2.91 4.999 1.989 1.947-.374 3.956-1.135 5.713-1.905.113.264.219.493.338.73.51 1.016 1.086 1.7 2.375 1.254 1.08-.328 2.934-.978 4.289-1.608-.193.243-.394.57-.41.593-.813 1.2-.48 1.676 1.733 1.319 2.05-.331 4.882-1.086 6.453-1.81A276.805 276.805 0 0 0 28.41 20l2.03-.44c.963-.527 1.665-1.06 2.817-1.69 1.989-1.085 8.243-3.574 11.228-4.529.998.644 2.839.971 5.892.866 2.043-.07 4.71-.224 8.11-.877Zm13.667-5.105c-1.42 1.268-3.12 2.037-5.436 2.75-.804.243-1.5.42-2.052.55-3.686.79-3.17-.364.475-1.682 2.295-.787 4.595-1.37 7.013-1.618Zm-48.586.02c-1.403 1.288-3.048 2.107-5.308 2.803-.784.239-1.463.409-2.002.534-3.741.82-2.95-.534.613-1.834 2.24-.775 4.347-1.29 6.697-1.504Z" /></symbol><symbol fill="none" viewBox="0 0 203 20" id="taycan-turbo-s-text"><path fill-rule="evenodd" clip-rule="evenodd" d="M166.735 9.027c1.182-.44 2.285-.705 3.131-.784.839-.08 1.426.02 1.56.326.134.306-.21.761-.872 1.248a11.89 11.89 0 0 1-2.782 1.5 13.699 13.699 0 0 1-3.274.807c-.884.095-1.504-.006-1.637-.325s.241-.793.949-1.298c.703-.501 1.743-1.034 2.925-1.474Zm-20.482 2.965c1.472-1.29 2.781-1.937 5.191-2.783a30.42 30.42 0 0 1 1.904-.526c3.999-.893 3.587.694-.206 2.05-2.388.81-4.369 1.083-6.889 1.26Zm-35.364 1.911a43.7 43.7 0 0 0 4.435-.551c.065.353.539.486 1.847.493 1.243.006 4.134-.204 7.595-1.032.059.097.126.19.196.274.58.692.965.86 2.63.491a57.32 57.32 0 0 0 2.514-.663l-.639.784 1.786.005c.705-.041 1.093-.417 1.581-.862l2.059-2.074a34.346 34.346 0 0 1 4.048-1.363c.553-.164 1.188-.317 1.75-.456.996-.246 1.531.118 1.744.828.016.051.023.08.112.066.719-.107 1.719-.304 2.447-.426l-3.71 4.28c2.568-.026 6.648-.075 9.898-.775.813-.175 1.933-.45 2.773-.713.024.06.534.897.563.937.44.614.784.8 2.174.613.802-.108 2.057-.368 3.431-.674 1.012 1.136 4.247 1.188 7.784.032 4.005-1.307 6.883-3.667 6.427-5.27-.456-1.603-4.072-1.841-8.077-.533-3.384 1.105-5.963 2.96-6.403 4.474-.6.138-1.218.27-1.773.354-.898.137-1.076.066-1.344-.255-.207-.247-.365-.789-.072-.976.364-.212.822-.486 1.119-.701 3.185-2.318 2.364-4.66-4.256-3.34-1.332.266-3.781 1.137-5.069 1.813l6.204-6.936-3.138.077-5.598 6.421c-.126-.263-.34-.674-.498-.924a2.673 2.673 0 0 0-.381-.48c-.328-.314-.738-.4-1.487-.333-1.962.176-5.315 1.343-6.778 1.96l1.586-1.895-3.334.26-3.473 4.282c-.913.296-2.244.695-2.787.83-.879.218-1.049.162-1.318-.16-.188-.224-.252-.58-.062-.8 1.161-1.345 2.287-2.732 3.72-4.316l-3.091.217c-1.168 1.403-2.358 2.701-3.443 4.16-.042.055-.076.11-.101.16-1.427.516-4.048.754-5.498.73-.52-.01-.157-.373.079-.674.833-1.06 3.307-3.68 4.208-4.577-.8.053-2.037.109-3.082.16-.2.139-1.838 1.762-2.778 2.739-.759.792-1.572 1.713-2.015 2.305-1.975.378-4.544.555-6.833.563-1.197.005-2.329.004-3.248-.074-1.454-.067-1.542-.487-.793-1.409 1.618-1.99 3.672-4.095 6.421-6.188 2.045-.06 4.093-.075 6.223-.08 1.121-.022 2.216-.163 2.998-.785l1.59-1.249c-2.816.064-5.591.113-8.353.185.602-.448 1.66-1.223 2.255-1.715l-3.625.037c-.943.694-1.644 1.11-2.431 1.778-1.628.07-3.549.134-5.164.218l-2.009 1.802c1.508-.076 3.345-.122 4.889-.162-2.491 1.937-4.686 3.936-6.453 6.051-1.609 1.926-1.37 2.82 1.054 3.106 1.288.153 3.919.237 6.657.105a43.825 43.825 0 0 0 2.317-.169ZM198.676 3.022a45.002 45.002 0 0 0-5.903.275 32.887 32.887 0 0 0-4.706.866c-2.711.724-4.299 1.786-4.312 2.514-.015.769.752 1.389 3.537 1.99.98.212 2.31.424 2.911.522 4.294.7 6.634 1.184 5.462 1.772-.59.296-2.172.605-5.106.82-1.795.13-3.303.188-5.512.206a151.25 151.25 0 0 1-7.955-.137c-.814.911-1.104 1.252-1.692 1.861 1.385.037 2.742.086 4.129.125 4.306.122 8.654.09 12.952-.145a44.877 44.877 0 0 0 5.303-.589c2.553-.44 3.399-1.059 3.604-1.789.206-.734-.68-1.51-2.532-2.233-.925-.36-2.1-.71-3.503-1.034-1.402-.324-3.041-.581-4.892-.872-2.136-.336-1.967-.746-.366-1.272.792-.26 1.926-.506 3.291-.695a41.991 41.991 0 0 1 4.663-.37c.647-.02 2.001-.042 3.206-.066l.126-.005c.231-.01.35-.155.499-.303.785-.868.895-1.191-.082-1.29-.194-.02-.376-.03-.572-.049a50.47 50.47 0 0 0-2.55-.102ZM23.511 8.244c-1.4 1.289-3.04 2.108-5.295 2.805-.783.238-1.46.408-1.997.533-3.733.82-2.944-.534.61-1.834 2.237-.775 4.338-1.29 6.682-1.504Zm48.469-.019c-1.417 1.268-3.113 2.037-5.423 2.749-.802.244-1.497.42-2.048.55-3.676.791-3.163-.363.475-1.68 2.289-.788 4.584-1.37 6.996-1.619ZM58.346 13.33c.475.51 1.747.721 3.182.604 1.488-.084 3.492-.508 5.976-1.41a32.733 32.733 0 0 0 2.043-.833c.104.232.203.454.307.67.493 1.044 1.154 1.579 2.596 1.143.785-.238 1.821-.491 3.224-.984l-1.212 1.37 1.522.009c.741-.036 1.369-.301 1.85-.776l2.231-2.206c3.584-1.144 6.095-1.575 7.232-1.727.093-.01.125.044.028.136-1.024 1.051-2.293 2.61-2.98 3.728-.425.691.083.826 1.362.878 1.15.046 2.146-.052 3.284-.177a27.101 27.101 0 0 0 4.284-.807l-.182-.643c-.08-.324-.413-.465-.794-.383-.863.177-1.318.27-1.73.327-.482.07-.94.113-1.13.122-.884.043-.952-.252-.553-.771.813-1.06 1.995-2.292 2.894-3.347a.609.609 0 0 0 .107-.633 4.56 4.56 0 0 0-.228-.518c-.402-.787-3.742.035-6.52.865-1.457.428-2.738.861-3.296 1.045l2.004-2.207-3.314.176-3.067 3.522c-.825.315-1.605.564-2.385.847-1.142.416-1.81.247-2.13-.264-.25-.399-.305-.79.01-1.177l2.802-3.106c-2.4-.073-6.684.21-10.414 1.223-1.973.536-4.02 1.388-4.713 1.76-1.148.613-2.25 1.336-2.544 2.002-4.887.94-7.237.767-8.794.592-3.565-.4-.56-1.979.367-2.368 1.435-.602 3.482-1.1 6.07-1.67.786-.169 1.796-.34 2.777-.5l.103-.018c.188-.035.28-.168.398-.307.49-.593.557-.871-.12-.882-.153 0-.306.002-.47.01-1.949.113-5.07.484-7.894 1.283-4.618 1.33-7.079 2.957-6.94 4.34-2.717.867-6.578 2.36-8.531 3.356 1.59-1.572 5.977-5.666 9.796-8.946l-3.876.348-2.68 2.581c-1.33.692-4.146 1.743-5.793 2-.557.087-.17-.402.085-.726.9-1.146 2.58-2.884 3.552-3.852-1.713.175-2.596.183-3.836.39-.283.197-2.141 2.06-2.988 3.018-1.01.44-2.471.925-3.388 1.223-.878.326-1.079.223-1.359-.275-.219-.39-.422-.994-.18-1.277l2.772-3.242c-7.095-.066-11.258.987-14.637 3.037l-6.492 1.59.354-.369c.989-1.029 1.982-2.056 2.962-3.093.736-.778 1.463-1.564 2.182-2.357.763-.841 1.51-1.694 2.245-2.56a251.83 251.83 0 0 0 4.178-.155c1.852-.08 3.707-.165 5.562-.18a4.208 4.208 0 0 0 1.652-.326 3.938 3.938 0 0 0 1.173-.786c.143-.137.297-.281.458-.43.425-.396.889-.828 1.257-1.237a528.6 528.6 0 0 0-13.792.717c-2.058.135-4.115.284-6.17.447-1.69.134-3.38.279-5.068.444-.705.688-1.428 1.39-2.125 2.102 1.37-.06 2.74-.128 4.109-.198 1.215-.063 2.457-.13 3.816-.205l.728-.04c-.8.937-1.599 1.875-2.4 2.81-.765.897-1.53 1.795-2.297 2.692-.745.87-1.49 1.742-2.234 2.614-.71.833-1.415 1.67-2.124 2.504h1.855c.604 0 1.27-.299 1.375-.354a4.33 4.33 0 0 0 .499-.308l6.146-1.493c-1.053 1.583.202 2.91 4.987 1.989 1.942-.374 3.946-1.135 5.7-1.905.111.264.218.493.336.73.51 1.016 1.084 1.7 2.37 1.254 1.077-.328 2.926-.978 4.278-1.608-.193.243-.393.57-.409.593-.811 1.2-.479 1.676 1.729 1.319 2.045-.331 4.87-1.086 6.437-1.81A276.412 276.412 0 0 0 28.343 20l2.024-.44c.961-.527 1.662-1.06 2.81-1.69 1.985-1.085 8.224-3.574 11.202-4.529.995.644 2.831.971 5.877.866 2.039-.07 4.7-.224 8.09-.877Z" fill="#000" /></symbol><symbol fill="none" viewBox="0 0 175 20" id="taycan-turbo-text"><path fill-rule="evenodd" clip-rule="evenodd" d="M166.835 9.25c1.185-.44 2.291-.705 3.139-.785.841-.08 1.429.02 1.563.327.135.305-.21.76-.873 1.247a11.942 11.942 0 0 1-2.79 1.5 13.747 13.747 0 0 1-3.281.808c-.887.094-1.508-.006-1.641-.325-.134-.32.241-.793.951-1.299.705-.501 1.747-1.034 2.932-1.474Zm-20.532 2.964c1.476-1.29 2.789-1.937 5.205-2.783.839-.252 1.331-.39 1.907-.526 4.009-.893 3.597.694-.206 2.05-2.394.811-4.379 1.083-6.906 1.26Zm-35.449 1.911a43.833 43.833 0 0 0 4.445-.55c.066.352.541.486 1.852.492 1.247.006 4.144-.203 7.614-1.032.059.098.126.19.196.274.582.692.967.86 2.636.492a57.542 57.542 0 0 0 2.52-.664l-.64.784 1.79.006c.707-.042 1.095-.418 1.585-.863l2.065-2.073a34.532 34.532 0 0 1 4.057-1.364c.554-.164 1.191-.316 1.754-.455.998-.247 1.534.117 1.749.828.015.05.023.079.112.066.721-.108 1.723-.304 2.453-.427l-3.72 4.28c2.575-.026 6.665-.075 9.922-.774.816-.176 1.939-.451 2.78-.714.024.06.536.898.564.938.441.613.787.8 2.18.612.804-.108 2.062-.367 3.44-.673 1.014 1.136 4.257 1.187 7.802.032 4.015-1.308 6.899-3.668 6.442-5.27-.456-1.603-4.082-1.842-8.096-.534-3.392 1.105-5.977 2.96-6.419 4.474-.601.138-1.221.27-1.776.355-.901.137-1.08.065-1.348-.255-.208-.247-.366-.79-.072-.977.365-.212.823-.485 1.121-.701 3.193-2.317 2.37-4.66-4.266-3.34-1.335.267-3.79 1.138-5.081 1.813l6.219-6.936-3.146.077-5.612 6.422c-.125-.263-.34-.675-.499-.925a2.672 2.672 0 0 0-.381-.48c-.329-.314-.74-.4-1.49-.333-1.967.177-5.329 1.344-6.796 1.96l1.591-1.895-3.343.261-3.48 4.281c-.916.296-2.25.695-2.795.83-.881.218-1.051.162-1.32-.159-.189-.224-.253-.581-.063-.801 1.163-1.345 2.293-2.731 3.73-4.315l-3.099.217c-1.171 1.402-2.365 2.7-3.452 4.158-.042.056-.076.111-.101.162-1.431.515-4.058.754-5.511.729-.522-.01-.157-.373.079-.673.835-1.061 3.315-3.68 4.218-4.577-.801.053-2.042.108-3.089.159-.2.14-1.843 1.762-2.785 2.74-.761.79-1.576 1.713-2.02 2.304-1.98.378-4.556.555-6.85.563-1.199.005-2.334.004-3.255-.074-1.457-.067-1.546-.487-.795-1.408 1.621-1.99 3.681-4.096 6.436-6.188 2.051-.06 4.103-.076 6.238-.08 1.124-.023 2.221-.163 3.006-.786l1.593-1.248c-2.823.063-5.605.113-8.373.184.604-.447 1.665-1.223 2.261-1.715l-3.634.037c-.945.695-1.648 1.11-2.437 1.778-1.632.071-3.558.135-5.177.218l-2.013 1.802c1.511-.076 3.353-.122 4.9-.161-2.497 1.936-4.697 3.936-6.468 6.05-1.613 1.926-1.373 2.82 1.056 3.107 1.291.152 3.929.236 6.673.104.796-.038 1.6-.094 2.323-.169ZM23.567 8.244c-1.403 1.289-3.048 2.108-5.308 2.805a30.93 30.93 0 0 1-2.002.533c-3.742.82-2.95-.534.612-1.834 2.241-.775 4.348-1.29 6.698-1.504Zm48.586-.019c-1.42 1.268-3.12 2.037-5.436 2.749-.804.244-1.5.42-2.053.55-3.685.791-3.17-.363.476-1.68 2.294-.788 4.595-1.37 7.013-1.619ZM58.486 13.33c.477.51 1.752.721 3.19.604 1.491-.084 3.5-.508 5.99-1.41a32.98 32.98 0 0 0 2.049-.833c.103.232.202.454.306.67.495 1.044 1.158 1.579 2.603 1.143.787-.238 1.826-.491 3.232-.984l-1.215 1.37 1.525.009c.744-.036 1.373-.301 1.854-.776l2.238-2.206c3.592-1.144 6.11-1.575 7.25-1.727.093-.01.125.044.027.136-1.026 1.051-2.298 2.61-2.987 3.728-.427.691.083.826 1.365.878 1.152.046 2.152-.051 3.292-.177 1.2-.136 2.436-.313 4.294-.807l-.182-.643c-.08-.324-.414-.465-.796-.383-.865.177-1.321.27-1.735.327-.483.07-.942.113-1.132.122-.886.043-.954-.252-.554-.771.815-1.06 2-2.292 2.9-3.347a.608.608 0 0 0 .108-.633 4.484 4.484 0 0 0-.23-.518c-.401-.787-3.75.035-6.535.865-1.46.428-2.744.861-3.303 1.045l2.009-2.207-3.322.176-3.075 3.522c-.826.315-1.609.564-2.39.847-1.145.416-1.815.247-2.136-.264-.25-.399-.306-.79.01-1.177l2.81-3.106c-2.407-.073-6.701.21-10.44 1.223-1.977.536-4.03 1.388-4.725 1.76-1.15.613-2.256 1.336-2.55 2.002-4.899.94-7.254.767-8.815.592-3.574-.4-.56-1.979.368-2.368 1.439-.602 3.49-1.1 6.085-1.67a59.778 59.778 0 0 1 2.886-.518c.19-.035.282-.168.4-.307.491-.593.558-.871-.12-.882-.154 0-.307.002-.472.01-1.953.113-5.082.484-7.913 1.283-4.629 1.33-7.096 2.957-6.958 4.34-2.723.867-6.592 2.36-8.55 3.356 1.594-1.572 5.991-5.666 9.819-8.946l-3.885.348-2.687 2.581c-1.333.692-4.155 1.743-5.807 2-.558.087-.17-.402.086-.726.902-1.146 2.585-2.884 3.56-3.852-1.717.175-2.602.183-3.845.39-.283.197-2.147 2.06-2.996 3.018-1.012.44-2.476.925-3.395 1.223-.88.326-1.082.223-1.363-.275-.22-.39-.423-.994-.181-1.277l2.78-3.242c-7.112-.066-11.285.987-14.673 3.037l-6.508 1.59.355-.369c.992-1.029 1.987-2.056 2.97-3.093a153.65 153.65 0 0 0 2.187-2.357 105.69 105.69 0 0 0 2.25-2.56c1.397-.037 2.791-.095 4.188-.155 1.857-.08 3.717-.165 5.576-.18a4.223 4.223 0 0 0 1.656-.326 3.949 3.949 0 0 0 1.176-.786c.143-.137.298-.281.458-.43.427-.396.892-.828 1.26-1.237a531.136 531.136 0 0 0-13.825.717 437.14 437.14 0 0 0-6.185.447 280.79 280.79 0 0 0-5.08.444c-.707.688-1.431 1.39-2.13 2.102 1.373-.06 2.746-.128 4.119-.198 1.218-.063 2.463-.13 3.825-.205l.73-.04c-.802.937-1.603 1.875-2.405 2.81L4.868 8.77c-.747.87-1.493 1.742-2.238 2.614-.712.833-1.42 1.67-2.13 2.504h1.86c.605 0 1.273-.299 1.378-.354.173-.09.34-.194.5-.308l6.161-1.493c-1.056 1.583.202 2.91 4.999 1.989 1.946-.374 3.955-1.135 5.713-1.905.113.264.219.493.338.73.51 1.016 1.086 1.7 2.375 1.254 1.08-.328 2.934-.978 4.288-1.608-.192.243-.393.57-.409.593-.813 1.2-.48 1.676 1.733 1.319 2.05-.331 4.882-1.086 6.452-1.81A276.807 276.807 0 0 0 28.41 20l2.029-.44c.964-.527 1.666-1.06 2.817-1.69 1.99-1.085 8.244-3.574 11.229-4.529.997.644 2.839.971 5.891.866 2.044-.07 4.711-.224 8.11-.877Z" fill="#000" /></symbol><symbol fill="none" viewBox="0 0 25 24" id="x"><path d="m18.5 6-12 12M6.5 6l12 12" stroke="#fff" stroke-width="2" stroke-linecap="round" stroke-linejoin="round" /></symbol></defs></svg>