<svg width="186" height="40" viewBox="0 0 186 40" fill="none" xmlns="http://www.w3.org/2000/svg" style="background-color: #000; padding: 113px 40px;">
    <path fill-rule="evenodd" clip-rule="evenodd" d="M115.904 26.6601C116.857 27.68 119.406 28.1025 122.281 27.8688C125.261 27.7003 129.278 26.8526 134.253 25.0465C135.421 24.6149 136.562 24.1667 137.752 23.6473C137.947 23.5623 138.15 23.4714 138.348 23.3815C138.555 23.8463 138.753 24.2902 138.962 24.7224C139.951 26.8104 141.275 27.8795 144.163 27.0077C145.736 26.5322 147.813 26.0258 150.624 25.04L148.196 27.7822L151.245 27.7977C152.73 27.7265 153.988 27.1954 154.95 26.2466L159.423 21.8342C166.602 19.5462 171.634 18.683 173.913 18.3802C174.099 18.3599 174.163 18.468 173.968 18.6519C171.916 20.7549 169.375 23.873 167.997 26.1087C167.145 27.4912 168.164 27.7602 170.727 27.8635C173.029 27.9565 175.027 27.7613 177.306 27.5105C179.704 27.2382 182.177 26.8847 185.89 25.8953L185.526 24.6111C185.367 23.9623 184.698 23.68 183.935 23.8441C182.206 24.1982 181.294 24.3838 180.467 24.4988C179.502 24.6373 178.584 24.724 178.204 24.7421C176.432 24.8277 176.297 24.2394 177.097 23.1997C178.726 21.0817 181.093 18.615 182.894 16.5067C183.279 16.0708 183.231 15.575 183.109 15.2402C182.984 14.8963 182.835 14.5636 182.651 14.2037C181.847 12.6307 175.154 14.2748 169.588 15.9339C166.669 16.7912 164.102 17.6566 162.983 18.024L166.999 13.6111L160.359 13.9619L154.215 21.0052C152.561 21.6369 150.998 22.1332 149.436 22.7007C147.148 23.5323 145.809 23.1938 145.168 22.1722C144.667 21.3748 144.555 20.5929 145.187 19.819L150.803 13.6063C145.992 13.4592 137.409 14.0245 129.936 16.0526C125.984 17.1244 121.882 18.8274 120.492 19.5724C118.192 20.7977 115.983 22.2444 115.396 23.5751C105.603 25.4578 100.896 25.1096 97.7759 24.7609C90.6315 23.9618 96.6538 20.8025 98.5113 20.0249C101.386 18.8204 105.487 17.824 110.674 16.6859C112.247 16.3463 114.27 16.004 116.237 15.6836C116.306 15.6724 116.378 15.659 116.443 15.6472C116.821 15.5782 117.005 15.3124 117.24 15.0338C118.223 13.8475 118.356 13.2913 117.002 13.2704C116.694 13.2688 116.388 13.2736 116.057 13.2918C112.154 13.517 105.899 14.2572 100.241 15.8563C90.9893 18.5172 86.0581 21.77 86.3341 24.5352C80.8921 26.2702 73.1567 29.2578 69.2428 31.249C72.4288 28.1052 81.2189 19.9158 88.8698 13.3554L81.105 14.0518L75.7341 19.2141C73.0696 20.5971 67.4281 22.6996 64.1276 23.2146C63.0119 23.3885 63.788 22.4108 64.2988 21.7615C66.1006 19.4697 69.4658 15.9943 71.4142 14.0577C67.9833 14.4085 66.2135 14.4246 63.7286 14.8375C63.1622 15.2322 59.4382 18.9584 57.7411 20.8737C55.7184 21.7561 52.7906 22.7253 50.9546 23.3205C49.1949 23.9725 48.7922 23.7661 48.2306 22.7691C47.7915 21.9899 47.3845 20.7822 47.868 20.2169L53.4234 13.7314C39.2084 13.6004 30.8676 15.7061 24.0971 19.8072L11.0877 22.9852L11.7975 22.2482C13.7796 20.1907 15.7686 18.1369 17.7331 16.0628C19.2066 14.5069 20.6635 12.9351 22.1043 11.3487C23.6334 9.66559 25.1283 7.96053 26.6018 6.22872C29.3952 6.15385 32.1817 6.03886 34.9736 5.91745C38.6859 5.757 42.4025 5.58852 46.1191 5.55643C47.4134 5.54787 48.5018 5.30399 49.4292 4.9066C50.3566 4.50922 51.1246 3.9578 51.7787 3.33311C52.0654 3.05981 52.3751 2.77153 52.696 2.47363C53.548 1.68153 54.4775 0.817232 55.2151 0C50.6123 0.174892 46.0105 0.386153 41.4109 0.62469C36.799 0.864298 32.1882 1.13493 27.58 1.43497C23.4569 1.70346 19.336 2.00136 15.2172 2.32815C11.8306 2.59664 8.44456 2.88599 5.06331 3.21652C3.65027 4.59212 2.20247 5.99607 0.806003 7.41981C3.55079 7.2984 6.29451 7.16469 9.03823 7.02403C11.4728 6.89888 13.9619 6.76303 16.6848 6.61434L18.1428 6.53465C16.5409 8.40872 14.9402 10.2833 13.3367 12.1553C11.8007 13.9486 10.2684 15.7446 8.73177 17.5373C7.23903 19.2793 5.7463 21.0213 4.25678 22.7665C2.83411 24.4319 1.42053 26.106 0 27.7736H3.71659C4.92747 27.7752 6.26242 27.1762 6.47261 27.0665C6.81865 26.8858 7.15078 26.6777 7.47169 26.4504L19.7869 23.4633C17.6759 26.6296 20.1907 29.2856 29.7782 27.4415C33.6691 26.6932 37.6847 25.1716 41.198 23.6318C41.4232 24.1592 41.635 24.6175 41.8741 25.0925C42.894 27.1243 44.0434 28.4914 46.6213 27.5992C48.7799 26.9441 52.4847 25.6439 55.1926 24.3843C54.8075 24.871 54.4053 25.5241 54.3743 25.5695C52.7484 27.9694 53.4143 28.9224 57.8379 28.2079C61.9364 27.5458 67.5955 26.0364 70.735 24.5897C66.0996 29.2022 60.8672 34.5313 55.7873 40L59.843 39.1191C61.7695 38.0655 63.1735 36.999 65.4749 35.7416C69.4509 33.5696 81.9522 28.5919 87.9183 26.6831C89.9122 27.9694 93.5924 28.6245 99.6943 28.4143C103.779 28.2731 109.11 27.9661 115.904 26.6601ZM143.222 16.4505C140.383 18.9862 136.984 20.5233 132.356 21.9481C130.749 22.4359 129.357 22.7884 128.254 23.0494C120.887 24.6309 121.916 22.3209 129.205 19.6863C133.79 18.1112 138.389 16.9469 143.222 16.4505ZM46.1073 16.4885C43.3026 19.0659 40.015 20.7036 35.4977 22.0968C33.9296 22.5739 32.5716 22.9141 31.4961 23.1649C24.0169 24.8058 25.5979 22.0958 32.7198 19.4959C37.1996 17.946 41.4098 16.9164 46.1073 16.4885Z" fill="white"/>
</svg>